<svg t="1718696380690" class="icon" viewBox="0 0 40 40" version="1.1" xmlns="http://www.w3.org/2000/svg" width="14" height="14">
    <defs>
        <linearGradient id="grad1" x1="0%" y1="0%" x2="100%" y2="100%">
            <stop offset="0.13739" stop-color="#6B57FF"/>
            <stop offset="100%" stop-color="#62F8E4" />
            <stop offset="0.4404" stop-color="#3C99CC"/>
        </linearGradient>
    </defs>
    <g transform="scale(0.036) translate(2, 2)">
        <path d="M577.828571 1024H166.4c-91.428571 0-166.4-74.971429-166.4-166.4V166.4C0 74.971429 74.971429 0 166.4 0h691.2c91.428571 0 166.4 74.971429 166.4 166.4v451.657143c0 27.428571-23.771429 51.2-51.2 51.2s-51.2-23.771429-51.2-51.2V166.4c0-34.742857-29.257143-64-64-64H166.4c-34.742857 0-64 29.257143-64 64v691.2c0 34.742857 29.257143 64 64 64h411.428571c27.428571 0 51.2 23.771429 51.2 51.2 0 27.428571-21.942857 51.2-51.2 51.2z" fill="url(#grad1)"></path>
        <path d="M563.2 307.2H256c-27.428571 0-51.2-23.771429-51.2-51.2 0-27.428571 23.771429-51.2 51.2-51.2h307.2c27.428571 0 51.2 23.771429 51.2 51.2 0 27.428571-23.771429 51.2-51.2 51.2z m0 204.8H256c-27.428571 0-51.2-23.771429-51.2-51.2 0-27.428571 23.771429-51.2 51.2-51.2h307.2c27.428571 0 51.2 23.771429 51.2 51.2 0 27.428571-23.771429 51.2-51.2 51.2zM358.4 716.8H256c-27.428571 0-51.2-23.771429-51.2-51.2 0-27.428571 23.771429-51.2 51.2-51.2h102.4c27.428571 0 51.2 23.771429 51.2 51.2 0 27.428571-23.771429 51.2-51.2 51.2z m583.314286 298.057143L693.028571 764.342857c-3.657143-3.657143-7.314286-10.971429-9.142857-16.457143l-10.971428-47.542857c-3.657143-14.628571 12.8-31.085714 29.257143-29.257143l47.542857 10.971429c7.314286 1.828571 12.8 3.657143 16.457143 9.142857l248.685714 248.685714c16.457143 16.457143 12.8 43.885714-7.314286 64-21.942857 21.942857-49.371429 25.6-65.828571 10.971429z" fill="url(#grad1)"></path>
    </g>
</svg>
